# Blender 4.2.3 LTS
# www.blender.org
mtllib model_e.mtl
o Curve.016
v 0.651573 0.147409 -1.151802
v 1.025094 0.147409 -1.031961
v 0.947966 0.147409 -0.681318
v 0.553881 0.147409 -0.856268
v 0.651573 -7.811523 -1.151802
v 1.025094 -7.811523 -1.031961
v 0.947966 -7.811523 -0.681318
v 0.553881 -7.811523 -0.856268
vn 0.3055 -0.0000 -0.9522
vn -0.0000 1.0000 -0.0000
vn -0.9495 -0.0000 -0.3139
vn -0.0000 -1.0000 -0.0000
vn -0.4058 -0.0000 0.9140
vn 0.9767 -0.0000 0.2148
vt 1.000000 0.000000
vt 0.000000 0.000000
vt 0.666667 0.000000
vt 0.333333 0.000000
s 0
usemtl gray
f 2/1/1 6/1/1 5/2/1 1/2/1
f 1/2/2 3/3/2 2/1/2
f 1/2/2 4/4/2 3/3/2
f 1/2/3 5/2/3 8/4/3 4/4/3
f 5/2/4 6/1/4 7/3/4
f 5/2/4 7/3/4 8/4/4
f 4/4/5 8/4/5 7/3/5 3/3/5
f 3/3/6 7/3/6 6/1/6 2/1/6
o Curve.045
v 1.329954 0.147409 -0.870841
v 1.502140 0.147409 -0.590096
v 1.390002 0.147409 -0.102947
v 1.025263 0.147409 -0.651862
v 1.101225 0.147409 -0.997232
v 1.329954 -7.811523 -0.870841
v 1.502140 -7.811523 -0.590096
v 1.390002 -7.811523 -0.102947
v 1.025263 -7.811523 -0.651862
v 1.101225 -7.811523 -0.997232
vn 0.8524 -0.0000 -0.5228
vn -0.0000 1.0000 -0.0000
vn 0.4837 -0.0000 -0.8753
vn -0.0000 -1.0000 -0.0000
vn -0.9767 -0.0000 -0.2148
vn -0.8329 -0.0000 0.5534
vn 0.9745 -0.0000 0.2243
vt 1.000000 0.000000
vt 0.000000 0.000000
vt 0.750000 0.000000
vt 0.500000 0.000000
vt 0.250000 0.000000
s 0
usemtl gray
f 10/5/7 15/5/7 14/6/7 9/6/7
f 9/6/8 11/7/8 10/5/8
f 9/6/8 12/8/8 11/7/8
f 13/9/8 12/8/8 9/6/8
f 9/6/9 14/6/9 18/9/9 13/9/9
f 14/6/10 15/5/10 16/7/10
f 14/6/10 16/7/10 17/8/10
f 18/9/10 14/6/10 17/8/10
f 13/9/11 18/9/11 17/8/11 12/8/11
f 12/8/12 17/8/12 16/7/12 11/7/12
f 11/7/13 16/7/13 15/5/13 10/5/13
o Curve.046
v 1.626803 0.147409 -1.060195
v 2.015181 0.147409 -0.818234
v 1.567048 0.147409 -0.640739
v 1.413059 0.147409 -0.891814
v 1.626803 -7.811523 -1.060195
v 2.015181 -7.811523 -0.818234
v 1.567048 -7.811523 -0.640739
v 1.413059 -7.811523 -0.891814
vn 0.5288 -0.0000 -0.8488
vn -0.0000 1.0000 -0.0000
vn -0.6188 -0.0000 -0.7855
vn -0.0000 -1.0000 -0.0000
vn -0.8524 -0.0000 0.5228
vn 0.3682 -0.0000 0.9297
vt 1.000000 0.000000
vt 0.000000 0.000000
vt 0.666667 0.000000
vt 0.333333 0.000000
s 0
usemtl gray
f 20/10/14 24/10/14 23/11/14 19/11/14
f 19/11/15 21/12/15 20/10/15
f 22/13/15 21/12/15 19/11/15
f 19/11/16 23/11/16 26/13/16 22/13/16
f 23/11/17 24/10/17 25/12/17
f 26/13/17 23/11/17 25/12/17
f 22/13/18 26/13/18 25/12/18 21/12/18
f 21/12/19 25/12/19 24/10/19 20/10/19
