# Blender 4.2.3 LTS
# www.blender.org
mtllib model_g.mtl
o Curve.044
v 2.065507 0.147409 -0.750162
v 2.068518 0.147409 -0.511315
v 1.906880 0.147409 -0.116712
v 1.577852 0.147409 -0.557013
v 2.065507 -7.811523 -0.750162
v 2.068518 -7.811523 -0.511315
v 1.906880 -7.811523 -0.116712
v 1.577852 -7.811523 -0.557013
v 1.459267 -7.811523 -0.059407
v 1.459267 0.147409 -0.059407
vn 0.9999 -0.0000 -0.0126
vn -0.0000 1.0000 -0.0000
vn -0.3682 -0.0000 -0.9297
vn -0.0000 -1.0000 -0.0000
vn -0.9728 -0.0000 -0.2318
vn 0.1270 -0.0000 0.9919
vn 0.9254 -0.0000 0.3791
vt 1.000000 0.000000
vt 0.000000 0.000000
vt 0.750000 0.000000
vt 0.250000 0.000000
vt 0.500000 0.000000
s 0
usemtl gray
f 2/1/1 6/1/1 5/2/1 1/2/1
f 1/2/2 3/3/2 2/1/2
f 4/4/2 3/3/2 1/2/2
f 1/2/3 5/2/3 8/4/3 4/4/3
f 5/2/4 6/1/4 7/3/4
f 8/4/4 5/2/4 7/3/4
f 8/4/4 7/3/4 9/5/4
f 4/4/5 8/4/5 9/5/5 10/5/5
f 10/5/6 9/5/6 7/3/6 3/3/6
f 4/4/2 10/5/2 3/3/2
f 3/3/7 7/3/7 6/1/7 2/1/7
o Curve.041
v 1.900612 0.147409 -0.031678
v 2.030269 0.147409 0.218364
v 1.931366 0.147409 0.368760
v 1.931366 -7.807361 0.368760
v 2.030269 -7.807361 0.218364
v 1.900612 -7.807361 -0.031678
v 1.519499 0.147409 0.015250
v 1.519499 -7.807361 0.015250
vn -0.0000 1.0000 -0.0000
vn -0.0000 -1.0000 -0.0000
vn 0.8877 -0.0000 -0.4603
vn 0.8355 -0.0000 0.5495
vn -0.1222 -0.0000 -0.9925
vn -0.6513 -0.0000 0.7588
vt 0.750000 0.000000
vt 1.000000 0.000000
vt 0.000000 0.000000
vt 0.210783 0.000000
s 0
usemtl gray
f 13/6/8 12/7/8 11/8/8 17/9/8
f 18/9/9 16/8/9 15/7/9 14/6/9
f 12/7/10 15/7/10 16/8/10 11/8/10
f 13/6/11 14/6/11 15/7/11 12/7/11
f 11/8/12 16/8/12 18/9/12 17/9/12
f 17/9/13 18/9/13 14/6/13 13/6/13
