# Blender 4.2.3 LTS
# www.blender.org
mtllib model_a.mtl
o Curve.002
v -1.607339 0.147409 -0.906992
v -1.433531 0.147409 -0.822359
v -1.759381 0.147409 -0.320943
v -2.126550 0.147409 -0.780560
v -1.607339 -7.811523 -0.906992
v -1.433531 -7.811523 -0.822359
v -1.759381 -7.811523 -0.320943
v -2.126550 -7.811523 -0.780560
v -2.124863 -7.811523 -0.529404
v -2.124863 0.147409 -0.529404
vn -0.0000 1.0000 -0.0000
vn 0.4378 -0.0000 -0.8991
vn -0.2366 -0.0000 -0.9716
vn -0.0000 -1.0000 -0.0000
vn -1.0000 -0.0000 0.0067
vn -0.4954 -0.0000 0.8686
vn 0.8385 -0.0000 0.5449
vt 0.000000 0.000000
vt 0.750000 0.000000
vt 1.000000 0.000000
vt 0.250000 0.000000
vt 0.500000 0.000000
s 0
usemtl gray
f 1/1/1 3/2/1 2/3/1
f 2/3/2 6/3/2 5/1/2 1/1/2
f 4/4/1 3/2/1 1/1/1
f 1/1/3 5/1/3 8/4/3 4/4/3
f 5/1/4 6/3/4 7/2/4
f 8/4/4 5/1/4 7/2/4
f 8/4/4 7/2/4 9/5/4
f 4/4/5 8/4/5 9/5/5 10/5/5
f 10/5/6 9/5/6 7/2/6 3/2/6
f 4/4/1 10/5/1 3/2/1
f 3/2/7 7/2/7 6/3/7 2/3/7
o Curve.003
v -2.145928 0.147409 -0.447227
v -1.810064 0.147409 -0.255654
v -2.188365 0.147409 0.152133
v -2.309029 0.147409 -0.063144
v -2.145928 -7.811523 -0.447227
v -1.810064 -7.811523 -0.255654
v -2.188365 -7.811523 0.152133
v -2.309029 -7.811523 -0.063144
vn 0.4955 -0.0000 -0.8686
vn -0.0000 1.0000 -0.0000
vn -0.9204 -0.0000 -0.3909
vn -0.0000 -1.0000 -0.0000
vn -0.8723 -0.0000 0.4889
vn 0.7331 -0.0000 0.6801
vt 1.000000 0.000000
vt 0.000000 0.000000
vt 0.666667 0.000000
vt 0.333333 0.000000
s 0
usemtl gray
f 12/6/8 16/6/8 15/7/8 11/7/8
f 11/7/9 13/8/9 12/6/9
f 14/9/9 13/8/9 11/7/9
f 11/7/10 15/7/10 18/9/10 14/9/10
f 15/7/11 16/6/11 17/8/11
f 18/9/11 15/7/11 17/8/11
f 14/9/12 18/9/12 17/8/12 13/8/12
f 13/8/13 17/8/13 16/6/13 12/6/13
o Curve.004
v -1.738883 0.147409 -0.212093
v -1.401019 0.147409 0.016720
v -1.698128 0.147409 0.503150
v -1.876971 0.147409 0.485082
v -2.139896 0.147409 0.220179
v -1.738883 -7.811523 -0.212093
v -1.401019 -7.811523 0.016720
v -1.698128 -7.811523 0.503150
v -1.876971 -7.811523 0.485082
v -2.139896 -7.811523 0.220179
vn 0.5607 -0.0000 -0.8280
vn -0.0000 1.0000 -0.0000
vn -0.7331 -0.0000 -0.6801
vn -0.0000 -1.0000 -0.0000
vn -0.7098 -0.0000 0.7045
vn -0.1005 -0.0000 0.9949
vn 0.8534 -0.0000 0.5213
vt 1.000000 0.000000
vt 0.000000 0.000000
vt 0.750000 0.000000
vt 0.500000 0.000000
vt 0.250000 0.000000
s 0
usemtl gray
f 20/10/14 25/10/14 24/11/14 19/11/14
f 19/11/15 21/12/15 20/10/15
f 19/11/15 22/13/15 21/12/15
f 23/14/15 22/13/15 19/11/15
f 19/11/16 24/11/16 28/14/16 23/14/16
f 24/11/17 25/10/17 26/12/17
f 24/11/17 26/12/17 27/13/17
f 28/14/17 24/11/17 27/13/17
f 23/14/18 28/14/18 27/13/18 22/13/18
f 22/13/19 27/13/19 26/12/19 21/12/19
f 21/12/20 26/12/20 25/10/20 20/10/20
o Curve.005
v -0.949726 0.147409 -0.804592
v -0.868682 0.147409 -0.472930
v -0.909473 0.147409 -0.304410
v -1.344425 0.147409 -0.043767
v -1.362749 0.147409 -0.781310
v -0.949726 -7.811523 -0.804592
v -0.868682 -7.811523 -0.472930
v -0.909473 -7.811523 -0.304410
v -1.344425 -7.811523 -0.043767
v -1.362749 -7.811523 -0.781310
v -1.689902 -7.811523 -0.277736
v -1.689902 0.147409 -0.277736
vn 0.9714 -0.0000 -0.2374
vn -0.0000 1.0000 -0.0000
vn -0.0563 -0.0000 -0.9984
vn -0.0000 -1.0000 -0.0000
vn -0.8386 -0.0000 -0.5448
vn -0.5607 -0.0000 0.8280
vn 0.5140 -0.0000 0.8578
vn 0.9719 -0.0000 0.2353
vt 1.000000 0.000000
vt 0.000000 0.000000
vt 0.800000 0.000000
vt 0.600000 0.000000
vt 0.200000 0.000000
vt 0.400000 0.000000
s 0
usemtl gray
f 30/15/21 35/15/21 34/16/21 29/16/21
f 29/16/22 31/17/22 30/15/22
f 29/16/22 32/18/22 31/17/22
f 33/19/22 32/18/22 29/16/22
f 29/16/23 34/16/23 38/19/23 33/19/23
f 34/16/24 35/15/24 36/17/24
f 34/16/24 36/17/24 37/18/24
f 38/19/24 34/16/24 37/18/24
f 38/19/24 37/18/24 39/20/24
f 33/19/25 38/19/25 39/20/25 40/20/25
f 40/20/26 39/20/26 37/18/26 32/18/26
f 33/19/22 40/20/22 32/18/22
f 32/18/27 37/18/27 36/17/27 31/17/27
f 31/17/28 36/17/28 35/15/28 30/15/28
o Curve.007
v -0.777367 0.147409 -0.998373
v -0.391708 0.147409 -0.891446
v -0.388630 0.147409 -0.648579
v -0.801331 0.147409 -0.525711
v -0.879700 0.147409 -0.850428
v -0.777367 -7.811523 -0.998373
v -0.391708 -7.811523 -0.891446
v -0.388630 -7.811523 -0.648579
v -0.801331 -7.811523 -0.525711
v -0.879700 -7.811523 -0.850428
vn 0.2672 -0.0000 -0.9636
vn -0.0000 1.0000 -0.0000
vn -0.8224 -0.0000 -0.5689
vn -0.0000 -1.0000 -0.0000
vn -0.9721 -0.0000 0.2346
vn 0.2853 -0.0000 0.9584
vn 0.9999 -0.0000 -0.0127
vt 1.000000 0.000000
vt 0.000000 0.000000
vt 0.750000 0.000000
vt 0.500000 0.000000
vt 0.250000 0.000000
s 0
usemtl gray
f 42/21/29 47/21/29 46/22/29 41/22/29
f 41/22/30 43/23/30 42/21/30
f 41/22/30 44/24/30 43/23/30
f 41/22/30 45/25/30 44/24/30
f 41/22/31 46/22/31 50/25/31 45/25/31
f 46/22/32 47/21/32 48/23/32
f 46/22/32 48/23/32 49/24/32
f 46/22/32 49/24/32 50/25/32
f 45/25/33 50/25/33 49/24/33 44/24/33
f 44/24/34 49/24/34 48/23/34 43/23/34
f 43/23/35 48/23/35 47/21/35 42/21/35
o Curve.019
v 0.112206 0.147409 -0.386744
v 0.325648 0.147409 0.258118
v -0.074619 0.147409 0.463654
v -0.131064 0.147409 -0.364632
v 0.112206 -7.811523 -0.386744
v 0.325648 -7.811523 0.258118
v -0.074619 -7.811523 0.463654
v -0.131064 -7.811523 -0.364632
v -0.347282 -7.811523 -0.100307
v -0.347282 0.147409 -0.100307
vn 0.9493 -0.0000 -0.3142
vn -0.0000 1.0000 -0.0000
vn -0.0905 -0.0000 -0.9959
vn -0.0000 -1.0000 -0.0000
vn -0.7740 -0.0000 -0.6332
vn -0.9003 -0.0000 0.4353
vn 0.4568 -0.0000 0.8896
vt 1.000000 0.000000
vt 0.000000 0.000000
vt 0.750000 0.000000
vt 0.250000 0.000000
vt 0.500000 0.000000
s 0
usemtl gray
f 52/26/36 56/26/36 55/27/36 51/27/36
f 51/27/37 53/28/37 52/26/37
f 54/29/37 53/28/37 51/27/37
f 51/27/38 55/27/38 58/29/38 54/29/38
f 55/27/39 56/26/39 57/28/39
f 58/29/39 55/27/39 57/28/39
f 58/29/39 57/28/39 59/30/39
f 54/29/40 58/29/40 59/30/40 60/30/40
f 60/30/41 59/30/41 57/28/41 53/28/41
f 54/29/37 60/30/37 53/28/37
f 53/28/42 57/28/42 56/26/42 52/26/42
o Curve.020
v -0.360811 0.147409 -0.571486
v -0.205937 0.147409 -0.402311
v -0.415994 0.147409 -0.145519
v -0.791708 0.147409 -0.443208
v -0.360811 -7.811523 -0.571486
v -0.205937 -7.811523 -0.402311
v -0.415994 -7.811523 -0.145519
v -0.791708 -7.811523 -0.443208
v -0.637228 -7.811523 -0.132105
v -0.828045 -7.811523 -0.293088
v -0.828045 0.147409 -0.293088
v -0.637228 0.147409 -0.132105
vn 0.7376 -0.0000 -0.6752
vn -0.0000 1.0000 -0.0000
vn -0.2853 -0.0000 -0.9584
vn -0.0000 -1.0000 -0.0000
vn -0.9719 -0.0000 -0.2353
vn -0.6448 -0.0000 0.7643
vn 0.0605 -0.0000 0.9982
vn 0.7740 -0.0000 0.6332
vt 1.000000 0.000000
vt 0.000000 0.000000
vt 0.800000 0.000000
vt 0.200000 0.000000
vt 0.600000 0.000000
vt 0.400000 0.000000
s 0
usemtl gray
f 62/31/43 66/31/43 65/32/43 61/32/43
f 61/32/44 63/33/44 62/31/44
f 64/34/44 63/33/44 61/32/44
f 61/32/45 65/32/45 68/34/45 64/34/45
f 65/32/46 66/31/46 67/33/46
f 68/34/46 65/32/46 67/33/46
f 68/34/46 67/33/46 69/35/46
f 68/34/46 69/35/46 70/36/46
f 64/34/47 68/34/47 70/36/47 71/36/47
f 71/36/48 70/36/48 69/35/48 72/35/48
f 64/34/44 71/36/44 72/35/44
f 64/34/44 72/35/44 63/33/44
f 72/35/49 69/35/49 67/33/49 63/33/49
f 63/33/50 67/33/50 66/31/50 62/31/50
o Curve.021
v -0.877788 0.147409 -0.228007
v -0.694988 0.147409 -0.073796
v -0.775413 0.147409 0.452189
v -1.027953 0.147409 0.538323
v -1.291977 0.147409 0.020193
v -0.877788 -7.811523 -0.228007
v -0.694988 -7.811523 -0.073796
v -0.775413 -7.811523 0.452189
v -1.027953 -7.811523 0.538323
v -1.291977 -7.811523 0.020193
vn 0.6448 -0.0000 -0.7643
vn -0.0000 1.0000 -0.0000
vn -0.5140 -0.0000 -0.8578
vn -0.0000 -1.0000 -0.0000
vn -0.8910 -0.0000 0.4540
vn 0.3228 -0.0000 0.9465
vn 0.9885 -0.0000 0.1511
vt 1.000000 0.000000
vt 0.000000 0.000000
vt 0.750000 0.000000
vt 0.500000 0.000000
vt 0.250000 0.000000
s 0
usemtl gray
f 74/37/51 79/37/51 78/38/51 73/38/51
f 73/38/52 75/39/52 74/37/52
f 73/38/52 76/40/52 75/39/52
f 77/41/52 76/40/52 73/38/52
f 73/38/53 78/38/53 82/41/53 77/41/53
f 78/38/54 79/37/54 80/39/54
f 78/38/54 80/39/54 81/40/54
f 82/41/54 78/38/54 81/40/54
f 77/41/55 82/41/55 81/40/55 76/40/55
f 76/40/56 81/40/56 80/39/56 75/39/56
f 75/39/57 80/39/57 79/37/57 74/37/57
o Curve.022
v -0.420233 0.147409 -0.063287
v -0.140790 0.147409 0.514343
v -0.479724 0.147409 0.766167
v -0.615652 0.147409 -0.051443
v -0.420233 -7.811523 -0.063287
v -0.140790 -7.811523 0.514343
v -0.479724 -7.811523 0.766167
v -0.615652 -7.811523 -0.051443
v -0.695177 -7.811523 0.468615
v -0.695177 0.147409 0.468615
vn 0.9002 -0.0000 -0.4355
vn -0.0000 1.0000 -0.0000
vn -0.0605 -0.0000 -0.9982
vn -0.0000 -1.0000 -0.0000
vn -0.9885 -0.0000 -0.1512
vn -0.8100 -0.0000 0.5865
vn 0.5964 -0.0000 0.8027
vt 1.000000 0.000000
vt 0.000000 0.000000
vt 0.750000 0.000000
vt 0.250000 0.000000
vt 0.500000 0.000000
s 0
usemtl gray
f 84/42/58 88/42/58 87/43/58 83/43/58
f 83/43/59 85/44/59 84/42/59
f 86/45/59 85/44/59 83/43/59
f 83/43/60 87/43/60 90/45/60 86/45/60
f 87/43/61 88/42/61 89/44/61
f 90/45/61 87/43/61 89/44/61
f 90/45/61 89/44/61 91/46/61
f 86/45/62 90/45/62 91/46/62 92/46/62
f 92/46/63 91/46/63 89/44/63 85/44/63
f 86/45/59 92/46/59 85/44/59
f 85/44/64 89/44/64 88/42/64 84/42/64
o Curve.023
v -0.749645 0.147409 0.529844
v -0.538524 0.147409 0.834331
v -0.892619 0.147409 1.063689
v -1.029630 0.147409 0.625337
v -0.749645 -7.811523 0.529844
v -0.538524 -7.811523 0.834331
v -0.892619 -7.811523 1.063689
v -1.029630 -7.811523 0.625337
v -1.328313 -7.811523 0.900614
v -1.328313 0.147409 0.900614
vn 0.8218 -0.0000 -0.5698
vn -0.0000 1.0000 -0.0000
vn -0.3228 -0.0000 -0.9465
vn -0.0000 -1.0000 -0.0000
vn -0.6777 -0.0000 -0.7353
vn -0.3505 -0.0000 0.9365
vn 0.5436 -0.0000 0.8393
vt 1.000000 0.000000
vt 0.000000 0.000000
vt 0.750000 0.000000
vt 0.250000 0.000000
vt 0.500000 0.000000
s 0
usemtl gray
f 94/47/65 98/47/65 97/48/65 93/48/65
f 93/48/66 95/49/66 94/47/66
f 96/50/66 95/49/66 93/48/66
f 93/48/67 97/48/67 100/50/67 96/50/67
f 97/48/68 98/47/68 99/49/68
f 100/50/68 97/48/68 99/49/68
f 100/50/68 99/49/68 101/51/68
f 96/50/69 100/50/69 101/51/69 102/51/69
f 102/51/70 101/51/70 99/49/70 95/49/70
f 96/50/66 102/51/66 95/49/66
f 95/49/71 99/49/71 98/47/71 94/47/71
o Curve.024
v -1.348996 0.147409 0.088490
v -1.100919 0.147409 0.575318
v -1.389223 0.147409 0.843348
v -1.621742 0.147409 0.535035
v -1.348996 -7.811523 0.088490
v -1.100919 -7.811523 0.575318
v -1.389223 -7.811523 0.843348
v -1.621742 -7.811523 0.535035
vn 0.8910 -0.0000 -0.4540
vn -0.0000 1.0000 -0.0000
vn -0.8534 -0.0000 -0.5213
vn -0.0000 -1.0000 -0.0000
vn -0.7984 -0.0000 0.6021
vn 0.6809 -0.0000 0.7324
vt 1.000000 0.000000
vt 0.000000 0.000000
vt 0.666667 0.000000
vt 0.333333 0.000000
s 0
usemtl gray
f 104/52/72 108/52/72 107/53/72 103/53/72
f 103/53/73 105/54/73 104/52/73
f 103/53/73 106/55/73 105/54/73
f 103/53/74 107/53/74 110/55/74 106/55/74
f 107/53/75 108/52/75 109/54/75
f 107/53/75 109/54/75 110/55/75
f 106/55/76 110/55/76 109/54/76 105/54/76
f 105/54/77 109/54/77 108/52/77 104/52/77
o Curve.025
v -1.691410 0.147409 0.586067
v -1.451595 0.147409 0.899510
v -1.559661 0.147409 0.966366
v -1.752161 0.147409 0.997832
v -1.853390 0.147409 0.569697
v -1.691410 -7.811523 0.586067
v -1.451595 -7.811523 0.899510
v -1.559661 -7.811523 0.966366
v -1.752161 -7.811523 0.997832
v -1.853390 -7.811523 0.569697
v -1.844121 -7.811523 0.879311
v -1.844121 0.147409 0.879311
vn 0.7942 -0.0000 -0.6076
vn -0.0000 1.0000 -0.0000
vn 0.1005 -0.0000 -0.9949
vn -0.0000 -1.0000 -0.0000
vn -0.9996 -0.0000 0.0299
vn -0.7901 -0.0000 0.6130
vn 0.1613 -0.0000 0.9869
vn 0.5261 -0.0000 0.8504
vt 1.000000 0.000000
vt 0.000000 0.000000
vt 0.800000 0.000000
vt 0.600000 0.000000
vt 0.200000 0.000000
vt 0.400000 0.000000
s 0
usemtl gray
f 112/56/78 117/56/78 116/57/78 111/57/78
f 111/57/79 113/58/79 112/56/79
f 111/57/79 114/59/79 113/58/79
f 115/60/79 114/59/79 111/57/79
f 111/57/80 116/57/80 120/60/80 115/60/80
f 116/57/81 117/56/81 118/58/81
f 116/57/81 118/58/81 119/59/81
f 120/60/81 116/57/81 119/59/81
f 120/60/81 119/59/81 121/61/81
f 115/60/82 120/60/82 121/61/82 122/61/82
f 122/61/83 121/61/83 119/59/83 114/59/83
f 115/60/79 122/61/79 114/59/79
f 114/59/84 119/59/84 118/58/84 113/58/84
f 113/58/85 118/58/85 117/56/85 112/56/85
o Curve.027
v -1.936076 0.147409 0.541673
v -1.926592 0.147409 0.858298
v -2.163517 0.147409 0.890567
v -2.190002 0.147409 0.285822
v -1.936076 -7.811523 0.541673
v -1.926592 -7.811523 0.858298
v -2.163517 -7.811523 0.890567
v -2.190002 -7.811523 0.285822
v -2.270171 -7.811523 0.408373
v -2.270171 0.147409 0.408373
vn 0.9996 -0.0000 -0.0299
vn -0.0000 1.0000 -0.0000
vn 0.7098 -0.0000 -0.7044
vn -0.0000 -1.0000 -0.0000
vn -0.8368 -0.0000 -0.5474
vn -0.9764 -0.0000 0.2160
vn 0.1350 -0.0000 0.9909
vt 1.000000 0.000000
vt 0.000000 0.000000
vt 0.750000 0.000000
vt 0.250000 0.000000
vt 0.500000 0.000000
s 0
usemtl gray
f 124/62/86 128/62/86 127/63/86 123/63/86
f 123/63/87 125/64/87 124/62/87
f 126/65/87 125/64/87 123/63/87
f 123/63/88 127/63/88 130/65/88 126/65/88
f 127/63/89 128/62/89 129/64/89
f 130/65/89 127/63/89 129/64/89
f 130/65/89 129/64/89 131/66/89
f 126/65/90 130/65/90 131/66/90 132/66/90
f 132/66/91 131/66/91 129/64/91 125/64/91
f 126/65/87 132/66/87 125/64/87
f 125/64/92 129/64/92 128/62/92 124/62/92
